<?xml version="1.0" standalone="no"?>
<!DOCTYPE svg PUBLIC "-//W3C//DTD SVG 20010904//EN"
 "http://www.w3.org/TR/2001/REC-SVG-20010904/DTD/svg10.dtd">
<svg version="1.0" xmlns="http://www.w3.org/2000/svg"
 width="512.000000pt" height="512.000000pt" viewBox="0 0 512.000000 512.000000"
 preserveAspectRatio="xMidYMid meet">

<g transform="translate(0.000000,512.000000) scale(0.100000,-0.100000)"
fill="#000000" stroke="none">
<path d="M1425 4468 c-295 -32 -598 -178 -791 -380 -156 -163 -251 -336 -311
-566 -26 -99 -28 -121 -28 -297 0 -214 8 -271 65 -445 78 -241 170 -389 445
-720 469 -563 1029 -1158 1196 -1269 154 -103 319 -158 505 -168 188 -10 370
30 532 118 110 59 169 109 372 315 352 357 752 808 1052 1184 173 216 271 413
335 665 34 137 43 386 19 525 -82 469 -392 825 -853 980 -204 68 -474 84 -680
41 -257 -54 -489 -173 -670 -344 l-52 -49 -68 62 c-216 198 -489 320 -782 349
-117 12 -172 12 -286 -1z m1223 -1350 c60 -37 72 -77 72 -248 l0 -150 150 0
c130 0 156 -3 189 -20 81 -41 110 -146 62 -224 -40 -65 -78 -76 -251 -76
l-150 0 0 -150 c0 -130 -3 -156 -20 -189 -57 -113 -223 -113 -280 0 -17 33
-20 59 -20 189 l0 150 -151 0 c-138 0 -155 2 -191 22 -109 61 -110 214 -2 275
36 21 52 23 192 23 l152 0 0 150 c0 129 3 156 19 189 24 45 39 59 88 77 45 16
96 10 141 -18z"/>
</g>
</svg>
